<mxfile host="app.diagrams.net" modified="2024-05-29T12:51:32.413Z" agent="Mozilla/5.0 (Windows NT 10.0; Win64; x64) AppleWebKit/537.36 (KHTML, like Gecko) Chrome/121.0.0.0 Safari/537.36" etag="aE69HKANePtSEi7nF48Q" version="24.4.9" type="device">
  <diagram name="Página-1" id="KL6oK3fSHJKvYCikB_gN">
    <mxGraphModel dx="4044" dy="1303" grid="1" gridSize="10" guides="1" tooltips="1" connect="1" arrows="1" fold="1" page="1" pageScale="1" pageWidth="827" pageHeight="1169" math="0" shadow="0">
      <root>
        <mxCell id="0" />
        <mxCell id="1" parent="0" />
        <mxCell id="7dNafyH09tj9brP9vMpk-33" value="" style="group" vertex="1" connectable="0" parent="1">
          <mxGeometry x="-240" y="680" width="320" height="560" as="geometry" />
        </mxCell>
        <mxCell id="7dNafyH09tj9brP9vMpk-24" value="" style="rounded=1;whiteSpace=wrap;html=1;fillColor=#f5f5f5;gradientColor=#b3b3b3;strokeColor=#666666;shadow=1;" vertex="1" parent="7dNafyH09tj9brP9vMpk-33">
          <mxGeometry width="319.99999999999994" height="560" as="geometry" />
        </mxCell>
        <mxCell id="7dNafyH09tj9brP9vMpk-25" value="&lt;font style=&quot;font-size: 18px;&quot;&gt;Despache para Acabamento&lt;/font&gt;" style="text;html=1;align=center;verticalAlign=middle;resizable=0;points=[];autosize=1;strokeColor=none;fillColor=none;" vertex="1" parent="7dNafyH09tj9brP9vMpk-33">
          <mxGeometry x="34.99702127659573" y="59.99915254237288" width="250" height="40" as="geometry" />
        </mxCell>
        <mxCell id="7dNafyH09tj9brP9vMpk-26" value="Quantidade :" style="text;html=1;align=center;verticalAlign=middle;resizable=0;points=[];autosize=1;strokeColor=none;fillColor=none;" vertex="1" parent="7dNafyH09tj9brP9vMpk-33">
          <mxGeometry x="25.531914893617017" y="151.864406779661" width="90" height="30" as="geometry" />
        </mxCell>
        <mxCell id="7dNafyH09tj9brP9vMpk-27" value="Localização :" style="text;html=1;align=center;verticalAlign=middle;resizable=0;points=[];autosize=1;strokeColor=none;fillColor=none;" vertex="1" parent="7dNafyH09tj9brP9vMpk-33">
          <mxGeometry x="25.531914893617017" y="208.8135593220339" width="90" height="30" as="geometry" />
        </mxCell>
        <mxCell id="7dNafyH09tj9brP9vMpk-28" value="1.300pç" style="rounded=1;whiteSpace=wrap;html=1;fillColor=#B0B0B0;shadow=1;" vertex="1" parent="7dNafyH09tj9brP9vMpk-33">
          <mxGeometry x="122.55319148936168" y="151.864406779661" width="127.6595744680851" height="28.474576271186443" as="geometry" />
        </mxCell>
        <mxCell id="7dNafyH09tj9brP9vMpk-29" value="Minha Casa" style="rounded=1;whiteSpace=wrap;html=1;fillColor=#B0B0B0;shadow=1;" vertex="1" parent="7dNafyH09tj9brP9vMpk-33">
          <mxGeometry x="122.55319148936168" y="208.8135593220339" width="127.6595744680851" height="28.474576271186443" as="geometry" />
        </mxCell>
        <mxCell id="7dNafyH09tj9brP9vMpk-30" value="Horário :" style="text;html=1;align=center;verticalAlign=middle;resizable=0;points=[];autosize=1;strokeColor=none;fillColor=none;" vertex="1" parent="7dNafyH09tj9brP9vMpk-33">
          <mxGeometry x="34.042553191489354" y="256.271186440678" width="70" height="30" as="geometry" />
        </mxCell>
        <mxCell id="7dNafyH09tj9brP9vMpk-31" value="9;00 AM" style="rounded=1;whiteSpace=wrap;html=1;fillColor=#B0B0B0;shadow=1;" vertex="1" parent="7dNafyH09tj9brP9vMpk-33">
          <mxGeometry x="122.55319148936168" y="256.271186440678" width="127.6595744680851" height="28.474576271186443" as="geometry" />
        </mxCell>
        <mxCell id="7dNafyH09tj9brP9vMpk-32" value="Buscar Agora" style="rounded=1;whiteSpace=wrap;html=1;fillColor=#eeeeee;strokeColor=#36393d;sketch=1;curveFitting=1;jiggle=2;" vertex="1" parent="7dNafyH09tj9brP9vMpk-33">
          <mxGeometry x="108.94" y="370" width="101.06" height="52.37" as="geometry" />
        </mxCell>
        <mxCell id="7dNafyH09tj9brP9vMpk-120" value="Voltar" style="rounded=1;whiteSpace=wrap;html=1;fillColor=#B0B0B0;container=0;" vertex="1" parent="7dNafyH09tj9brP9vMpk-33">
          <mxGeometry x="94.11764705882354" y="450.0043859649122" width="131.76470588235293" height="39.29824561403508" as="geometry" />
        </mxCell>
        <mxCell id="7dNafyH09tj9brP9vMpk-44" value="" style="group" vertex="1" connectable="0" parent="1">
          <mxGeometry x="160" y="680" width="320" height="560" as="geometry" />
        </mxCell>
        <mxCell id="7dNafyH09tj9brP9vMpk-13" value="" style="rounded=1;whiteSpace=wrap;html=1;fillColor=#f5f5f5;gradientColor=#b3b3b3;strokeColor=#666666;shadow=1;" vertex="1" parent="7dNafyH09tj9brP9vMpk-44">
          <mxGeometry width="320" height="559.9999999999999" as="geometry" />
        </mxCell>
        <mxCell id="7dNafyH09tj9brP9vMpk-14" value="&lt;font style=&quot;font-size: 18px;&quot;&gt;Acabamento&lt;/font&gt;" style="text;html=1;align=center;verticalAlign=middle;resizable=0;points=[];autosize=1;strokeColor=none;fillColor=none;" vertex="1" parent="7dNafyH09tj9brP9vMpk-44">
          <mxGeometry x="100" y="30.545454545454543" width="120" height="40" as="geometry" />
        </mxCell>
        <mxCell id="7dNafyH09tj9brP9vMpk-15" value="João&amp;nbsp; =&amp;nbsp; 35pç por hr" style="text;html=1;align=center;verticalAlign=middle;resizable=0;points=[];autosize=1;strokeColor=none;fillColor=none;" vertex="1" parent="7dNafyH09tj9brP9vMpk-44">
          <mxGeometry x="50" y="91.63636363636363" width="130" height="30" as="geometry" />
        </mxCell>
        <mxCell id="7dNafyH09tj9brP9vMpk-16" value="Pedro&amp;nbsp; =&amp;nbsp; 40pç por hr" style="text;html=1;align=center;verticalAlign=middle;resizable=0;points=[];autosize=1;strokeColor=none;fillColor=none;" vertex="1" parent="7dNafyH09tj9brP9vMpk-44">
          <mxGeometry x="50" y="142.54545454545453" width="140" height="30" as="geometry" />
        </mxCell>
        <mxCell id="7dNafyH09tj9brP9vMpk-17" value="André&amp;nbsp; =&amp;nbsp; 38pç por hr" style="text;html=1;align=center;verticalAlign=middle;resizable=0;points=[];autosize=1;strokeColor=none;fillColor=none;" vertex="1" parent="7dNafyH09tj9brP9vMpk-44">
          <mxGeometry x="50" y="193.45454545454544" width="140" height="30" as="geometry" />
        </mxCell>
        <mxCell id="7dNafyH09tj9brP9vMpk-18" value="Miguel&amp;nbsp; =&amp;nbsp; 40pç por hr" style="text;html=1;align=center;verticalAlign=middle;resizable=0;points=[];autosize=1;strokeColor=none;fillColor=none;" vertex="1" parent="7dNafyH09tj9brP9vMpk-44">
          <mxGeometry x="50" y="244.36363636363635" width="140" height="30" as="geometry" />
        </mxCell>
        <mxCell id="7dNafyH09tj9brP9vMpk-19" value="Tiago&amp;nbsp; =&amp;nbsp; 42 pç por hr" style="text;html=1;align=center;verticalAlign=middle;resizable=0;points=[];autosize=1;strokeColor=none;fillColor=none;" vertex="1" parent="7dNafyH09tj9brP9vMpk-44">
          <mxGeometry x="50" y="290.18181818181813" width="140" height="30" as="geometry" />
        </mxCell>
        <mxCell id="7dNafyH09tj9brP9vMpk-20" value="quanto tempo 1.300pç" style="rounded=1;whiteSpace=wrap;html=1;fillColor=#B0B0B0;shadow=1;" vertex="1" parent="7dNafyH09tj9brP9vMpk-44">
          <mxGeometry x="95" y="356.3636363636363" width="130" height="40.72727272727272" as="geometry" />
        </mxCell>
        <mxCell id="7dNafyH09tj9brP9vMpk-21" value="?" style="rounded=1;whiteSpace=wrap;html=1;fillColor=#eeeeee;strokeColor=#36393d;sketch=1;curveFitting=1;jiggle=2;shadow=1;" vertex="1" parent="7dNafyH09tj9brP9vMpk-44">
          <mxGeometry x="100" y="416.4363636363636" width="120" height="40.72727272727272" as="geometry" />
        </mxCell>
        <mxCell id="7dNafyH09tj9brP9vMpk-22" value="Voltar" style="rounded=1;whiteSpace=wrap;html=1;fillColor=#B0B0B0;" vertex="1" parent="7dNafyH09tj9brP9vMpk-44">
          <mxGeometry x="110" y="476.50909090909084" width="100" height="40.72727272727272" as="geometry" />
        </mxCell>
        <mxCell id="7dNafyH09tj9brP9vMpk-46" value="" style="group" vertex="1" connectable="0" parent="1">
          <mxGeometry x="-620" y="680" width="320" height="560" as="geometry" />
        </mxCell>
        <mxCell id="7dNafyH09tj9brP9vMpk-35" value="" style="rounded=1;whiteSpace=wrap;html=1;fillColor=#f5f5f5;gradientColor=#b3b3b3;strokeColor=#666666;shadow=1;" vertex="1" parent="7dNafyH09tj9brP9vMpk-46">
          <mxGeometry x="-20" width="320" height="560" as="geometry" />
        </mxCell>
        <mxCell id="7dNafyH09tj9brP9vMpk-45" value="" style="group" vertex="1" connectable="0" parent="7dNafyH09tj9brP9vMpk-46">
          <mxGeometry y="54.193548387096776" width="192" height="424.51612903225805" as="geometry" />
        </mxCell>
        <mxCell id="7dNafyH09tj9brP9vMpk-37" value="Maria&amp;nbsp; =&amp;nbsp; 45pç por hr" style="text;html=1;align=center;verticalAlign=middle;resizable=0;points=[];autosize=1;strokeColor=none;fillColor=none;" vertex="1" parent="7dNafyH09tj9brP9vMpk-45">
          <mxGeometry x="3.902439024390244" y="63.225806451612904" width="130" height="30" as="geometry" />
        </mxCell>
        <mxCell id="7dNafyH09tj9brP9vMpk-38" value="Ana&amp;nbsp; =&amp;nbsp; 50pç por hr" style="text;html=1;align=center;verticalAlign=middle;resizable=0;points=[];autosize=1;strokeColor=none;fillColor=none;" vertex="1" parent="7dNafyH09tj9brP9vMpk-45">
          <mxGeometry x="0.7804878048780488" y="108.38709677419355" width="130" height="30" as="geometry" />
        </mxCell>
        <mxCell id="7dNafyH09tj9brP9vMpk-39" value="Joana&amp;nbsp; =&amp;nbsp; 43pç por hr" style="text;html=1;align=center;verticalAlign=middle;resizable=0;points=[];autosize=1;strokeColor=none;fillColor=none;" vertex="1" parent="7dNafyH09tj9brP9vMpk-45">
          <mxGeometry y="153.54838709677418" width="140" height="30" as="geometry" />
        </mxCell>
        <mxCell id="7dNafyH09tj9brP9vMpk-40" value="Sofia&amp;nbsp; =&amp;nbsp; 52pç por hr" style="text;html=1;align=center;verticalAlign=middle;resizable=0;points=[];autosize=1;strokeColor=none;fillColor=none;" vertex="1" parent="7dNafyH09tj9brP9vMpk-45">
          <mxGeometry x="0.7804878048780488" y="198.70967741935485" width="130" height="30" as="geometry" />
        </mxCell>
        <mxCell id="7dNafyH09tj9brP9vMpk-41" value="Carolina&amp;nbsp; =&amp;nbsp; 48pç por hr" style="text;html=1;align=center;verticalAlign=middle;resizable=0;points=[];autosize=1;strokeColor=none;fillColor=none;" vertex="1" parent="7dNafyH09tj9brP9vMpk-45">
          <mxGeometry y="243.8709677419355" width="150" height="30" as="geometry" />
        </mxCell>
        <mxCell id="7dNafyH09tj9brP9vMpk-42" value="Quanto tempo 1.300pç" style="rounded=1;whiteSpace=wrap;html=1;fillColor=#BDBDBD;shadow=1;" vertex="1" parent="7dNafyH09tj9brP9vMpk-45">
          <mxGeometry x="82.73170731707317" y="307.09677419354836" width="109.26829268292683" height="45.16129032258064" as="geometry" />
        </mxCell>
        <mxCell id="7dNafyH09tj9brP9vMpk-43" value="Quanto tempo 1.300pç" style="rounded=1;whiteSpace=wrap;html=1;fillColor=#eeeeee;strokeColor=#36393d;sketch=1;curveFitting=1;jiggle=2;" vertex="1" parent="7dNafyH09tj9brP9vMpk-45">
          <mxGeometry x="82.73170731707317" y="379.3548387096774" width="109.26829268292683" height="45.16129032258064" as="geometry" />
        </mxCell>
        <mxCell id="7dNafyH09tj9brP9vMpk-36" value="&lt;font style=&quot;font-size: 18px;&quot;&gt;Tirar Linha&lt;/font&gt;" style="text;html=1;align=center;verticalAlign=middle;resizable=0;points=[];autosize=1;strokeColor=none;fillColor=none;" vertex="1" parent="7dNafyH09tj9brP9vMpk-46">
          <mxGeometry x="85.00170731707317" y="54.193548387096826" width="110" height="40" as="geometry" />
        </mxCell>
        <mxCell id="7dNafyH09tj9brP9vMpk-121" value="Voltar" style="rounded=1;whiteSpace=wrap;html=1;fillColor=#B0B0B0;container=0;" vertex="1" parent="7dNafyH09tj9brP9vMpk-46">
          <mxGeometry x="74.99764705882353" y="500.0043859649122" width="131.76470588235293" height="39.29824561403508" as="geometry" />
        </mxCell>
        <mxCell id="7dNafyH09tj9brP9vMpk-56" value="" style="group" vertex="1" connectable="0" parent="1">
          <mxGeometry x="-1020" y="680" width="320" height="560" as="geometry" />
        </mxCell>
        <mxCell id="7dNafyH09tj9brP9vMpk-47" value="" style="rounded=1;whiteSpace=wrap;html=1;fillColor=#f5f5f5;gradientColor=#b3b3b3;strokeColor=#666666;container=0;" vertex="1" parent="7dNafyH09tj9brP9vMpk-56">
          <mxGeometry width="320" height="560" as="geometry" />
        </mxCell>
        <mxCell id="7dNafyH09tj9brP9vMpk-48" value="&lt;font style=&quot;font-size: 18px;&quot;&gt;Costura&lt;/font&gt;" style="text;html=1;align=center;verticalAlign=middle;resizable=0;points=[];autosize=1;strokeColor=none;fillColor=none;" vertex="1" parent="7dNafyH09tj9brP9vMpk-56">
          <mxGeometry x="115" y="50" width="90" height="40" as="geometry" />
        </mxCell>
        <mxCell id="7dNafyH09tj9brP9vMpk-49" value="Maria&amp;nbsp; =&amp;nbsp; 30pç por hr" style="text;html=1;align=center;verticalAlign=middle;resizable=0;points=[];autosize=1;strokeColor=none;fillColor=none;" vertex="1" parent="7dNafyH09tj9brP9vMpk-56">
          <mxGeometry x="35" y="130" width="130" height="30" as="geometry" />
        </mxCell>
        <mxCell id="7dNafyH09tj9brP9vMpk-50" value="Ana&amp;nbsp; =&amp;nbsp; 40pç por hr" style="text;html=1;align=center;verticalAlign=middle;resizable=0;points=[];autosize=1;strokeColor=none;fillColor=none;" vertex="1" parent="7dNafyH09tj9brP9vMpk-56">
          <mxGeometry x="30" y="180" width="130" height="30" as="geometry" />
        </mxCell>
        <mxCell id="7dNafyH09tj9brP9vMpk-51" value="Sofia&amp;nbsp; =&amp;nbsp; 45pç por hr" style="text;html=1;align=center;verticalAlign=middle;resizable=0;points=[];autosize=1;strokeColor=none;fillColor=none;" vertex="1" parent="7dNafyH09tj9brP9vMpk-56">
          <mxGeometry x="30" y="230" width="130" height="30" as="geometry" />
        </mxCell>
        <mxCell id="7dNafyH09tj9brP9vMpk-52" value="Laura&amp;nbsp; =&amp;nbsp; 40pç por hr" style="text;html=1;align=center;verticalAlign=middle;resizable=0;points=[];autosize=1;strokeColor=none;fillColor=none;" vertex="1" parent="7dNafyH09tj9brP9vMpk-56">
          <mxGeometry x="30" y="280" width="140" height="30" as="geometry" />
        </mxCell>
        <mxCell id="7dNafyH09tj9brP9vMpk-54" value="Quanto tempo 1.300pç" style="rounded=1;whiteSpace=wrap;html=1;shadow=1;fillColor=#B0B0B0;" vertex="1" parent="7dNafyH09tj9brP9vMpk-56">
          <mxGeometry x="90" y="360" width="130" height="40" as="geometry" />
        </mxCell>
        <mxCell id="7dNafyH09tj9brP9vMpk-55" value="?" style="rounded=1;whiteSpace=wrap;html=1;shadow=1;fillColor=#eeeeee;strokeColor=#36393d;sketch=1;curveFitting=1;jiggle=2;" vertex="1" parent="7dNafyH09tj9brP9vMpk-56">
          <mxGeometry x="87.5" y="430" width="135" height="45" as="geometry" />
        </mxCell>
        <mxCell id="7dNafyH09tj9brP9vMpk-122" value="Voltar" style="rounded=1;whiteSpace=wrap;html=1;fillColor=#B0B0B0;container=0;" vertex="1" parent="7dNafyH09tj9brP9vMpk-56">
          <mxGeometry x="89.11764705882354" y="500.0043859649122" width="131.76470588235293" height="39.29824561403508" as="geometry" />
        </mxCell>
        <mxCell id="7dNafyH09tj9brP9vMpk-66" value="" style="group" vertex="1" connectable="0" parent="1">
          <mxGeometry x="170" y="80" width="320" height="569.3026315789473" as="geometry" />
        </mxCell>
        <mxCell id="7dNafyH09tj9brP9vMpk-57" value="" style="rounded=1;whiteSpace=wrap;html=1;fillColor=#f5f5f5;gradientColor=#b3b3b3;strokeColor=#666666;container=1;" vertex="1" parent="7dNafyH09tj9brP9vMpk-66">
          <mxGeometry width="320" height="560" as="geometry" />
        </mxCell>
        <mxCell id="7dNafyH09tj9brP9vMpk-63" value="André&amp;nbsp; =&amp;nbsp; 52pç por hr" style="text;html=1;align=center;verticalAlign=middle;resizable=0;points=[];autosize=1;strokeColor=none;fillColor=none;" vertex="1" parent="7dNafyH09tj9brP9vMpk-57">
          <mxGeometry x="30" y="284.75" width="140" height="30" as="geometry" />
        </mxCell>
        <mxCell id="7dNafyH09tj9brP9vMpk-62" value="Miguel&amp;nbsp; =&amp;nbsp; 63pç por hr" style="text;html=1;align=center;verticalAlign=middle;resizable=0;points=[];autosize=1;strokeColor=none;fillColor=none;" vertex="1" parent="7dNafyH09tj9brP9vMpk-57">
          <mxGeometry x="30" y="238.81" width="140" height="30" as="geometry" />
        </mxCell>
        <mxCell id="7dNafyH09tj9brP9vMpk-61" value="Carlos&amp;nbsp; =&amp;nbsp; 55pç por hr" style="text;html=1;align=center;verticalAlign=middle;resizable=0;points=[];autosize=1;strokeColor=none;fillColor=none;" vertex="1" parent="7dNafyH09tj9brP9vMpk-57">
          <mxGeometry x="31" y="193" width="140" height="30" as="geometry" />
        </mxCell>
        <mxCell id="7dNafyH09tj9brP9vMpk-60" value="Pedro =&amp;nbsp; 60pç por hr" style="text;html=1;align=center;verticalAlign=middle;resizable=0;points=[];autosize=1;strokeColor=none;fillColor=none;" vertex="1" parent="7dNafyH09tj9brP9vMpk-57">
          <mxGeometry x="35" y="145" width="130" height="30" as="geometry" />
        </mxCell>
        <mxCell id="7dNafyH09tj9brP9vMpk-59" value="João&amp;nbsp; =&amp;nbsp; 50pç por hr" style="text;html=1;align=center;verticalAlign=middle;resizable=0;points=[];autosize=1;strokeColor=none;fillColor=none;" vertex="1" parent="7dNafyH09tj9brP9vMpk-57">
          <mxGeometry x="35" y="100" width="130" height="30" as="geometry" />
        </mxCell>
        <mxCell id="7dNafyH09tj9brP9vMpk-58" value="&lt;font style=&quot;font-size: 18px;&quot;&gt;Bordado&amp;nbsp;&lt;/font&gt;" style="text;html=1;align=center;verticalAlign=middle;resizable=0;points=[];autosize=1;strokeColor=none;fillColor=none;" vertex="1" parent="7dNafyH09tj9brP9vMpk-57">
          <mxGeometry x="110" y="40" width="100" height="40" as="geometry" />
        </mxCell>
        <mxCell id="7dNafyH09tj9brP9vMpk-64" value="?" style="rounded=1;whiteSpace=wrap;html=1;fillColor=#eeeeee;strokeColor=#36393d;sketch=1;curveFitting=1;jiggle=2;" vertex="1" parent="7dNafyH09tj9brP9vMpk-57">
          <mxGeometry x="90" y="420" width="140" height="40" as="geometry" />
        </mxCell>
        <mxCell id="7dNafyH09tj9brP9vMpk-65" value="Quanto tempo 1.300 pç" style="rounded=1;whiteSpace=wrap;html=1;fillColor=#B0B0B0;strokeColor=#36393d;shadow=1;" vertex="1" parent="7dNafyH09tj9brP9vMpk-57">
          <mxGeometry x="85" y="360" width="140" height="40" as="geometry" />
        </mxCell>
        <mxCell id="7dNafyH09tj9brP9vMpk-119" value="Voltar" style="rounded=1;whiteSpace=wrap;html=1;fillColor=#B0B0B0;container=0;" vertex="1" parent="7dNafyH09tj9brP9vMpk-57">
          <mxGeometry x="93.23764705882365" y="475.0043859649122" width="131.76470588235293" height="39.29824561403508" as="geometry" />
        </mxCell>
        <mxCell id="7dNafyH09tj9brP9vMpk-69" value="" style="group" vertex="1" connectable="0" parent="1">
          <mxGeometry x="-240" y="80" width="320" height="560" as="geometry" />
        </mxCell>
        <mxCell id="7dNafyH09tj9brP9vMpk-1" value="" style="rounded=1;whiteSpace=wrap;html=1;fillColor=#f5f5f5;gradientColor=#b3b3b3;strokeColor=#666666;container=1;" vertex="1" parent="7dNafyH09tj9brP9vMpk-69">
          <mxGeometry x="2.35" width="320" height="560" as="geometry" />
        </mxCell>
        <mxCell id="7dNafyH09tj9brP9vMpk-2" value="&lt;font style=&quot;font-size: 18px;&quot;&gt;Corte&lt;/font&gt;" style="text;html=1;align=center;verticalAlign=middle;resizable=0;points=[];autosize=1;strokeColor=none;fillColor=none;container=0;" vertex="1" parent="7dNafyH09tj9brP9vMpk-69">
          <mxGeometry x="127.35294117647061" y="39.47368421052636" width="70" height="40" as="geometry" />
        </mxCell>
        <mxCell id="7dNafyH09tj9brP9vMpk-3" value="Carlos&amp;nbsp; =&amp;nbsp; 30pç por hr" style="text;html=1;align=center;verticalAlign=middle;resizable=0;points=[];autosize=1;strokeColor=none;fillColor=none;container=0;" vertex="1" parent="7dNafyH09tj9brP9vMpk-69">
          <mxGeometry x="28.235294117647072" y="103.33333333333337" width="140" height="30" as="geometry" />
        </mxCell>
        <mxCell id="7dNafyH09tj9brP9vMpk-4" value="Carlos&amp;nbsp; =&amp;nbsp; 30pç por hr" style="text;html=1;align=center;verticalAlign=middle;resizable=0;points=[];autosize=1;strokeColor=none;fillColor=none;container=0;" vertex="1" parent="7dNafyH09tj9brP9vMpk-69">
          <mxGeometry x="28.235294117647072" y="103.33333333333337" width="140" height="30" as="geometry" />
        </mxCell>
        <mxCell id="7dNafyH09tj9brP9vMpk-5" value="Renato&amp;nbsp; =&amp;nbsp; 35pç por hr" style="text;html=1;align=center;verticalAlign=middle;resizable=0;points=[];autosize=1;strokeColor=none;fillColor=none;container=0;" vertex="1" parent="7dNafyH09tj9brP9vMpk-69">
          <mxGeometry x="28.235294117647072" y="152.45614035087715" width="140" height="30" as="geometry" />
        </mxCell>
        <mxCell id="7dNafyH09tj9brP9vMpk-6" value="Lucas&amp;nbsp; =&amp;nbsp; 37pç por hr" style="text;html=1;align=center;verticalAlign=middle;resizable=0;points=[];autosize=1;strokeColor=none;fillColor=none;container=0;" vertex="1" parent="7dNafyH09tj9brP9vMpk-69">
          <mxGeometry x="26.35294117647061" y="196.66666666666663" width="140" height="30" as="geometry" />
        </mxCell>
        <mxCell id="7dNafyH09tj9brP9vMpk-7" value="Juliana&amp;nbsp; =&amp;nbsp; 40pç por hr" style="text;html=1;align=center;verticalAlign=middle;resizable=0;points=[];autosize=1;strokeColor=none;fillColor=none;container=0;" vertex="1" parent="7dNafyH09tj9brP9vMpk-69">
          <mxGeometry x="28.235294117647072" y="245.78947368421052" width="140" height="30" as="geometry" />
        </mxCell>
        <mxCell id="7dNafyH09tj9brP9vMpk-8" value="Alana&amp;nbsp; =&amp;nbsp; 38pç por hr" style="text;html=1;align=center;verticalAlign=middle;resizable=0;points=[];autosize=1;strokeColor=none;fillColor=none;container=0;" vertex="1" parent="7dNafyH09tj9brP9vMpk-69">
          <mxGeometry x="26.35294117647061" y="294.9122807017543" width="140" height="30" as="geometry" />
        </mxCell>
        <mxCell id="7dNafyH09tj9brP9vMpk-9" value="quanto tempo 1.300pç" style="rounded=1;whiteSpace=wrap;html=1;fillColor=#B0B0B0;container=0;" vertex="1" parent="7dNafyH09tj9brP9vMpk-69">
          <mxGeometry x="94.11764705882354" y="353.859649122807" width="131.76470588235293" height="39.29824561403508" as="geometry" />
        </mxCell>
        <mxCell id="7dNafyH09tj9brP9vMpk-10" value="?" style="rounded=1;whiteSpace=wrap;html=1;fillColor=#B0B0B0;container=0;" vertex="1" parent="7dNafyH09tj9brP9vMpk-69">
          <mxGeometry x="94.11764705882354" y="412.80701754385973" width="131.76470588235293" height="39.29824561403508" as="geometry" />
        </mxCell>
        <mxCell id="7dNafyH09tj9brP9vMpk-11" value="Voltar" style="rounded=1;whiteSpace=wrap;html=1;fillColor=#B0B0B0;container=0;" vertex="1" parent="7dNafyH09tj9brP9vMpk-69">
          <mxGeometry x="94.11764705882354" y="471.7543859649122" width="131.76470588235293" height="39.29824561403508" as="geometry" />
        </mxCell>
        <mxCell id="7dNafyH09tj9brP9vMpk-94" value="" style="group" vertex="1" connectable="0" parent="1">
          <mxGeometry x="-640" y="80" width="320" height="560" as="geometry" />
        </mxCell>
        <mxCell id="7dNafyH09tj9brP9vMpk-83" value="" style="rounded=1;whiteSpace=wrap;html=1;fillColor=#f5f5f5;gradientColor=#b3b3b3;strokeColor=#666666;" vertex="1" parent="7dNafyH09tj9brP9vMpk-94">
          <mxGeometry width="320" height="560" as="geometry" />
        </mxCell>
        <mxCell id="7dNafyH09tj9brP9vMpk-84" value="&lt;font style=&quot;font-size: 18px;&quot;&gt;Despache&amp;nbsp; de Tecido&lt;/font&gt;" style="text;html=1;align=center;verticalAlign=middle;resizable=0;points=[];autosize=1;strokeColor=none;fillColor=none;" vertex="1" parent="7dNafyH09tj9brP9vMpk-94">
          <mxGeometry x="65.00365853658536" y="50.001290322580644" width="190" height="40" as="geometry" />
        </mxCell>
        <mxCell id="7dNafyH09tj9brP9vMpk-85" value="Localidade :" style="text;html=1;align=center;verticalAlign=middle;resizable=0;points=[];autosize=1;strokeColor=none;fillColor=none;" vertex="1" parent="7dNafyH09tj9brP9vMpk-94">
          <mxGeometry x="20.121951219512198" y="170.96290322580643" width="90" height="30" as="geometry" />
        </mxCell>
        <mxCell id="7dNafyH09tj9brP9vMpk-86" value="Quantidade :" style="text;html=1;align=center;verticalAlign=middle;resizable=0;points=[];autosize=1;strokeColor=none;fillColor=none;" vertex="1" parent="7dNafyH09tj9brP9vMpk-94">
          <mxGeometry x="20.121951219512198" y="223.7883870967742" width="90" height="30" as="geometry" />
        </mxCell>
        <mxCell id="7dNafyH09tj9brP9vMpk-87" value="Tecido :" style="text;html=1;align=center;verticalAlign=middle;resizable=0;points=[];autosize=1;strokeColor=none;fillColor=none;" vertex="1" parent="7dNafyH09tj9brP9vMpk-94">
          <mxGeometry x="35.119268292682925" y="125.00258064516127" width="60" height="30" as="geometry" />
        </mxCell>
        <mxCell id="7dNafyH09tj9brP9vMpk-88" value="Fazer Compra" style="rounded=1;whiteSpace=wrap;html=1;shadow=1;fillColor=#eeeeee;strokeColor=#36393d;sketch=1;curveFitting=1;jiggle=2;" vertex="1" parent="7dNafyH09tj9brP9vMpk-94">
          <mxGeometry x="113.17073170731706" y="390" width="93.65853658536585" height="54.193548387096776" as="geometry" />
        </mxCell>
        <mxCell id="7dNafyH09tj9brP9vMpk-89" value="Analisar melhor Preço :" style="text;html=1;align=center;verticalAlign=middle;resizable=0;points=[];autosize=1;strokeColor=none;fillColor=none;" vertex="1" parent="7dNafyH09tj9brP9vMpk-94">
          <mxGeometry x="-0.002682926829267629" y="275.721935483871" width="150" height="30" as="geometry" />
        </mxCell>
        <mxCell id="7dNafyH09tj9brP9vMpk-90" value="" style="rounded=1;whiteSpace=wrap;html=1;shadow=1;" vertex="1" parent="7dNafyH09tj9brP9vMpk-94">
          <mxGeometry x="149.9929268292683" y="128.14967741935484" width="156.09756097560975" height="23.709677419354836" as="geometry" />
        </mxCell>
        <mxCell id="7dNafyH09tj9brP9vMpk-91" value="" style="rounded=1;whiteSpace=wrap;html=1;shadow=1;" vertex="1" parent="7dNafyH09tj9brP9vMpk-94">
          <mxGeometry x="149.9929268292683" y="177.25806451612902" width="156.09756097560975" height="23.709677419354836" as="geometry" />
        </mxCell>
        <mxCell id="7dNafyH09tj9brP9vMpk-92" value="" style="rounded=1;whiteSpace=wrap;html=1;shadow=1;" vertex="1" parent="7dNafyH09tj9brP9vMpk-94">
          <mxGeometry x="148.0029268292683" y="226.93548387096774" width="156.09756097560975" height="23.709677419354836" as="geometry" />
        </mxCell>
        <mxCell id="7dNafyH09tj9brP9vMpk-93" value="" style="rounded=1;whiteSpace=wrap;html=1;shadow=1;" vertex="1" parent="7dNafyH09tj9brP9vMpk-94">
          <mxGeometry x="148.0029268292683" y="278.8709677419355" width="156.09756097560975" height="23.709677419354836" as="geometry" />
        </mxCell>
        <mxCell id="7dNafyH09tj9brP9vMpk-118" value="Voltar" style="rounded=1;whiteSpace=wrap;html=1;fillColor=#B0B0B0;container=0;" vertex="1" parent="7dNafyH09tj9brP9vMpk-94">
          <mxGeometry x="94.11764705882354" y="465.0043859649122" width="131.76470588235293" height="39.29824561403508" as="geometry" />
        </mxCell>
        <mxCell id="7dNafyH09tj9brP9vMpk-107" value="" style="group" vertex="1" connectable="0" parent="1">
          <mxGeometry x="-1030" y="80" width="320" height="560" as="geometry" />
        </mxCell>
        <mxCell id="7dNafyH09tj9brP9vMpk-108" value="" style="rounded=1;whiteSpace=wrap;html=1;fillColor=#f5f5f5;gradientColor=#b3b3b3;strokeColor=#666666;" vertex="1" parent="7dNafyH09tj9brP9vMpk-107">
          <mxGeometry width="320" height="560" as="geometry" />
        </mxCell>
        <mxCell id="7dNafyH09tj9brP9vMpk-109" value="&lt;font style=&quot;font-size: 18px;&quot;&gt;Compra de Tecido&lt;/font&gt;" style="text;html=1;align=center;verticalAlign=middle;resizable=0;points=[];autosize=1;strokeColor=none;fillColor=none;" vertex="1" parent="7dNafyH09tj9brP9vMpk-107">
          <mxGeometry x="75" y="50" width="170" height="40" as="geometry" />
        </mxCell>
        <mxCell id="7dNafyH09tj9brP9vMpk-110" value="Quantidade :" style="text;html=1;align=center;verticalAlign=middle;resizable=0;points=[];autosize=1;strokeColor=none;fillColor=none;" vertex="1" parent="7dNafyH09tj9brP9vMpk-107">
          <mxGeometry x="30" y="135" width="90" height="30" as="geometry" />
        </mxCell>
        <mxCell id="7dNafyH09tj9brP9vMpk-111" value="Tecido :" style="text;html=1;align=center;verticalAlign=middle;resizable=0;points=[];autosize=1;strokeColor=none;fillColor=none;" vertex="1" parent="7dNafyH09tj9brP9vMpk-107">
          <mxGeometry x="30" y="185" width="60" height="30" as="geometry" />
        </mxCell>
        <mxCell id="7dNafyH09tj9brP9vMpk-112" value="Localização :" style="text;html=1;align=center;verticalAlign=middle;resizable=0;points=[];autosize=1;strokeColor=none;fillColor=none;" vertex="1" parent="7dNafyH09tj9brP9vMpk-107">
          <mxGeometry x="30" y="230" width="90" height="30" as="geometry" />
        </mxCell>
        <mxCell id="7dNafyH09tj9brP9vMpk-113" value="" style="rounded=1;whiteSpace=wrap;html=1;" vertex="1" parent="7dNafyH09tj9brP9vMpk-107">
          <mxGeometry x="127.5" y="140" width="142.5" height="20" as="geometry" />
        </mxCell>
        <mxCell id="7dNafyH09tj9brP9vMpk-114" value="" style="rounded=1;whiteSpace=wrap;html=1;" vertex="1" parent="7dNafyH09tj9brP9vMpk-107">
          <mxGeometry x="127.5" y="190" width="142.5" height="20" as="geometry" />
        </mxCell>
        <mxCell id="7dNafyH09tj9brP9vMpk-115" value="" style="rounded=1;whiteSpace=wrap;html=1;" vertex="1" parent="7dNafyH09tj9brP9vMpk-107">
          <mxGeometry x="127.5" y="235" width="142.5" height="20" as="geometry" />
        </mxCell>
        <mxCell id="7dNafyH09tj9brP9vMpk-116" value="Voltar" style="rounded=1;whiteSpace=wrap;html=1;fillColor=#B0B0B0;container=0;" vertex="1" parent="7dNafyH09tj9brP9vMpk-107">
          <mxGeometry x="94.11764705882354" y="450.0043859649122" width="131.76470588235293" height="39.29824561403508" as="geometry" />
        </mxCell>
        <mxCell id="7dNafyH09tj9brP9vMpk-117" value="Comprar Agora" style="rounded=1;whiteSpace=wrap;html=1;fillColor=#B0B0B0;container=0;" vertex="1" parent="7dNafyH09tj9brP9vMpk-107">
          <mxGeometry x="94.11764705882354" y="380.0043859649122" width="131.76470588235293" height="39.29824561403508" as="geometry" />
        </mxCell>
      </root>
    </mxGraphModel>
  </diagram>
</mxfile>
